<svg id="Capa_1" enable-background="new 0 0 512 512" height="512" viewBox="0 0 512 512" width="512" xmlns="http://www.w3.org/2000/svg"><g><path d="m355.097 189.935h-33.032l-41.29 57.806h-49.548l-41.29-57.806h-33.032l-82.581 82.581 74.321-16.516 41.29 49.548s45.593 0 61.581 40.491c1.581 4.004 7.385 4.004 8.966 0 15.988-40.491 61.581-40.491 61.581-40.491l41.292-49.548 74.323 16.516z" fill="#c38c66"/><path d="m443.516 266.677-82.581-82.581c-1.548-1.548-3.645-2.419-5.839-2.419h-33.032c-2.645 0-5.121 1.266-6.677 3.403l-59.387 81.658-59.387-81.657c-1.556-2.137-4.032-3.403-6.677-3.403h-33.032c-2.194 0-4.29.871-5.839 2.419l-82.581 82.581c-3.226 3.226-3.226 8.452 0 11.677 3.226 3.226 8.452 3.226 11.677 0l80.161-80.161h14.715l-33.392 53.427c-2.419 3.871-1.242 8.968 2.621 11.379 1.363.855 2.879 1.258 4.371 1.258 2.75 0 5.444-1.371 7.008-3.879l26.032-41.652v86.821c0 4.565 3.694 8.258 8.258 8.258s8.258-3.694 8.258-8.258v-90.223l41.593 57.191h32.427l41.593-57.191v57.191 24.774 8.258c0 4.565 3.694 8.258 8.258 8.258s8.258-3.694 8.258-8.258v-86.821l26.032 41.652c1.565 2.508 4.258 3.879 7.008 3.879 1.492 0 3.008-.403 4.371-1.258 3.863-2.411 5.04-7.508 2.621-11.379l-33.392-53.427h14.715l80.161 80.161c3.226 3.226 8.452 3.226 11.677 0 3.227-3.226 3.227-8.452.001-11.678z" fill="#b57f5f"/><path d="m256 222.968-15.848-15.848c-3.294-3.294-8.926-.961-8.926 3.697v43.781c0 13.415 10.045 25.439 23.442 26.141 14.287.748 26.106-10.615 26.106-24.739v-45.183c0-4.658-5.632-6.991-8.926-3.697z" fill="#d19a6e"/><path d="m256 0c-141.385 0-256 114.615-256 256s114.615 256 256 256 256-114.615 256-256-114.615-256-256-256zm0 487.226c-127.703 0-231.226-103.524-231.226-231.226 0-127.703 103.523-231.226 231.226-231.226s231.226 103.523 231.226 231.226c0 127.702-103.523 231.226-231.226 231.226z" fill="#ff8086"/><path d="m256 16.516c-132.263 0-239.484 107.22-239.484 239.484 0 132.263 107.221 239.484 239.484 239.484s239.484-107.221 239.484-239.484c0-132.264-107.221-239.484-239.484-239.484zm-222.968 239.484c0-123.142 99.826-222.968 222.968-222.968 58.6 0 111.889 22.639 151.684 59.606l-315.045 315.046c-36.968-39.795-59.607-93.084-59.607-151.684zm222.968 222.968c-58.6 0-111.889-22.639-151.684-59.606l315.045-315.045c36.968 39.794 59.607 93.083 59.607 151.683 0 123.142-99.826 222.968-222.968 222.968z" fill="#e5646e"/></g></svg>