<svg id="Flat" height="512" viewBox="0 0 512 512" width="512" xmlns="http://www.w3.org/2000/svg"><g><g><path d="m256 80a176 176 0 1 0 176 176 176 176 0 0 0 -176-176zm0 288a112 112 0 1 1 112-112 112 112 0 0 1 -112 112z" fill="#dcf9fe"/><g><g fill="#79d8eb"><path d="m148 168h-104a20 20 0 0 0 -20 20v80a20 20 0 0 0 20 20h12v132a20 20 0 0 0 20 20h40a20 20 0 0 0 20-20v-132h12a20 20 0 0 0 20-20v-80a20 20 0 0 0 -20-20z"/><rect height="72" rx="30" width="64" x="64" y="72"/><path d="m468 168h-104a20 20 0 0 0 -20 20v80a20 20 0 0 0 20 20h12v132a20 20 0 0 0 20 20h40a20 20 0 0 0 20-20v-132h12a20 20 0 0 0 20-20v-80a20 20 0 0 0 -20-20z"/><rect height="72" rx="30" width="64" x="384" y="72"/></g><g><g fill="#24afd6"><path d="m408 192h16v24h-16z"/><path d="m408 232h16v16h-16z"/><path d="m88 192h16v24h-16z"/><path d="m88 232h16v16h-16z"/></g><path d="m336 424h-160v-8h-16v32h16v-8h160v8h16v-32h-16z" fill="#79d8eb"/></g></g></g><g fill="#24afd6"><path d="m88 296h16v144h-16z"/><path d="m40 200h16v88h-16z"/><path d="m136 200h16v88h-16z"/><path d="m408 296h16v144h-16z"/><path d="m360 200h16v88h-16z"/></g><path d="m456 200h16v88h-16z" fill="#79d8eb"/></g></svg>