<svg id="Capa_1" enable-background="new 0 0 512 512" height="512" viewBox="0 0 512 512" width="512" xmlns="http://www.w3.org/2000/svg"><g><path d="m411.722 369.488-56.625-22.65h-198.194l-56.625 22.65c-15.676 6.27-25.956 21.453-25.956 38.337v79.4c0 13.682 11.092 24.774 24.774 24.774h123.872l34.032-23.666 32.032 23.667h123.872c13.682 0 24.774-11.092 24.774-24.774v-79.4c-.001-16.884-10.28-32.067-25.956-38.338z" fill="#dad8db"/><path d="m305.548 0h-68.741c-13.806 0-26.698 6.9-34.355 18.387l-4.259 6.387-24.527 41.29v99.097h197.946v-99.097c.001-36.486-29.577-66.064-66.064-66.064z" fill="#966a5b"/><path d="m198.194 24.774h-16.516c-22.804 0-41.29 18.486-41.29 41.29v99.097h57.806z" fill="#785353"/><path d="m359.226 140.387h-12.387c-9.122 0-16.516-7.395-16.516-16.516v-16.516c0-13.683-11.092-24.774-24.774-24.774h-99.097c-2.895 0-5.674.497-8.256 1.409l-15.196 105.947c0 50.168 22.83 90.837 72.998 90.837 50.169 0 90.839-40.67 90.839-90.839v-8.258h11.211c10.8 0 20.64-7.771 21.716-18.517 1.237-12.357-8.434-22.773-20.538-22.773z" fill="#ffe09f"/><path d="m198.194 189.935v-105.951c-9.6 3.413-16.516 12.599-16.516 23.371v16.516c0 9.121-7.395 16.516-16.516 16.516h-11.209c-10.799 0-20.64 7.77-21.716 18.515-1.238 12.358 8.433 22.775 20.538 22.775h12.387v8.26c0 50.168 40.669 90.837 90.837 90.837 5.649 0 11.154-.586 16.517-1.573-42.272-7.776-74.322-44.745-74.322-89.266z" fill="#f6d190"/><path d="m254.144 198.211c-1.613.029-3.216.099-4.808.208-52.233 3.565-67.659 76.915-67.659 102.158v161.875c0 4.561 3.697 8.258 8.258 8.258h156.903c4.561 0 8.258-3.697 8.258-8.258v-165.162c.001-55.347-45.373-100.096-100.952-99.079z" fill="#a4ccff"/><path d="m289.032 280.457h-33.032v-32.715c0-9.122-7.395-16.516-16.516-16.516l-9.817 16.516v246.591l9.817 17.667h49.548v-148.645l13.742-9.162c6.892-4.595 11.032-12.33 11.032-20.613v-28.349c0-13.683-11.091-24.774-24.774-24.774z" fill="#ffe09f"/><path d="m206.46 181.677c-2.903 0-5.718-1.532-7.226-4.246-2.218-3.988-.782-9.016 3.21-11.23l16.734-9.298-16.734-9.298c-3.992-2.214-5.427-7.242-3.21-11.23 2.21-3.976 7.242-5.427 11.226-3.206l29.726 16.516c2.621 1.456 4.25 4.218 4.25 7.218s-1.629 5.762-4.25 7.218l-29.726 16.516c-1.266.706-2.645 1.04-4 1.04z" fill="#e2a975"/><path d="m305.54 181.677c-1.355 0-2.734-.335-4-1.04l-29.726-16.516c-2.621-1.456-4.25-4.218-4.25-7.218s1.629-5.762 4.25-7.218l29.726-16.516c3.984-2.222 9.016-.77 11.226 3.206 2.218 3.988.782 9.016-3.21 11.23l-16.734 9.298 16.734 9.298c3.992 2.214 5.427 7.242 3.21 11.23-1.508 2.714-4.322 4.246-7.226 4.246z" fill="#e2a975"/><path d="m132.129 222.968h-66.064c-4.565 0-8.258-3.698-8.258-8.258s3.694-8.258 8.258-8.258h66.065c4.565 0 8.258 3.698 8.258 8.258-.001 4.56-3.694 8.258-8.259 8.258z" fill="#dbeaff"/><path d="m99.105 272.516c-3.032 0-5.944-1.669-7.395-4.565-2.04-4.081-.387-9.04 3.694-11.081l33.032-16.516c4.081-2.036 9.032-.387 11.081 3.694 2.04 4.081.387 9.04-3.694 11.081l-33.032 16.516c-1.186.593-2.444.871-3.686.871z" fill="#edf4ff"/><path d="m445.935 222.968h-66.065c-4.565 0-8.258-3.698-8.258-8.258s3.694-8.258 8.258-8.258h66.065c4.565 0 8.258 3.698 8.258 8.258.001 4.56-3.693 8.258-8.258 8.258z" fill="#dbeaff"/><path d="m412.895 272.516c-1.242 0-2.5-.278-3.685-.871l-33.032-16.516c-4.081-2.04-5.734-7-3.694-11.081 2.048-4.081 7.008-5.73 11.081-3.694l33.032 16.516c4.081 2.04 5.734 7 3.694 11.081-1.452 2.896-4.364 4.565-7.396 4.565z" fill="#edf4ff"/><path d="m222.968 512h16.516v-280.774c-9.122 0-16.516 7.395-16.516 16.516z" fill="#f6d190"/><path d="m189.935 292.319c0-41.057 24.192-77.84 59.401-93.9-52.208 3.591-92.433 49.226-92.433 102.158v161.875c0 4.56 3.697 8.258 8.258 8.258h24.774z" fill="#8bb3ea"/></g></svg>