<?xml version="1.0"?>
<svg xmlns="http://www.w3.org/2000/svg" xmlns:xlink="http://www.w3.org/1999/xlink" viewBox="0 0 512 512" width="512" height="512"><defs><linearGradient id="linear-gradient" x1="86.294" y1="425.706" x2="425.706" y2="86.294" gradientUnits="userSpaceOnUse"><stop offset="0" stop-color="#41dfd0"/><stop offset="1" stop-color="#ee83ef"/></linearGradient></defs><g id="gradient"><path d="M256,16A240,240,0,0,0,86.294,425.706,240,240,0,0,0,425.706,86.294,238.432,238.432,0,0,0,256,16ZM32,256A222.4,222.4,0,0,1,92.062,103.375l12.19,12.19A39.8,39.8,0,0,0,112.022,144H112a32.036,32.036,0,0,0-32,32v27.6A20.3,20.3,0,0,0,99.629,224,20.076,20.076,0,0,0,104,223.6v57.409A32.056,32.056,0,0,0,80,312v27.6A20.3,20.3,0,0,0,99.629,360,19.892,19.892,0,0,0,104,359.6V420.52c-2.161-2-4.3-4.034-6.392-6.128A222.533,222.533,0,0,1,32,256ZM232,120a24,24,0,1,1,24,24A24.028,24.028,0,0,1,232,120Zm56,40a16.019,16.019,0,0,1,16,16v27.6a4.29,4.29,0,0,1-3.922,4.4A4,4,0,0,1,296,204V176H280v48.022a39.9,39.9,0,0,0-46.042-1.378L232,220.687V176H216v28a3.98,3.98,0,0,1-.054.633L208,196.687V176a16.019,16.019,0,0,1,16-16Zm56-40a24,24,0,1,1,24,24A24.028,24.028,0,0,1,344,120Zm56,40a16.019,16.019,0,0,1,16,16v27.6a4.29,4.29,0,0,1-3.922,4.4A4,4,0,0,1,408,204V176H392v48.022a39.912,39.912,0,0,0-48,0V176H328v28a3.974,3.974,0,0,1-1.2,2.854,3.908,3.908,0,0,1-2.88,1.146A4.29,4.29,0,0,1,320,203.6V176a16.019,16.019,0,0,1,16-16Zm-8,152v68.687l-16-16V360h-4.687L344,332.687V312H328v4.687l-7.7-7.706A16.021,16.021,0,0,1,336,296h64a16.019,16.019,0,0,1,16,16v27.6a4.29,4.29,0,0,1-3.922,4.4,4.019,4.019,0,0,1-2.88-1.146A3.974,3.974,0,0,1,408,340V312Zm-88,27.6a4.29,4.29,0,0,1-3.922,4.4A4,4,0,0,1,296,340V312H280V416H264V360H248v56H232V312H216v28a3.974,3.974,0,0,1-1.2,2.854,3.927,3.927,0,0,1-2.88,1.146A4.29,4.29,0,0,1,208,339.6V312a16.019,16.019,0,0,1,16-16h60.687L304,315.313Zm-112,0a4.29,4.29,0,0,1-3.922,4.4A4,4,0,0,1,184,340V312H168V416H152V360H136v56H120V312H104v28a3.974,3.974,0,0,1-1.2,2.854A3.909,3.909,0,0,1,99.922,344,4.29,4.29,0,0,1,96,339.6V312a16.019,16.019,0,0,1,16-16h64a16.019,16.019,0,0,1,16,16ZM148.687,160,168,179.313v44.709a39.912,39.912,0,0,0-48,0V176H104v28a3.974,3.974,0,0,1-1.2,2.854A3.929,3.929,0,0,1,99.922,208,4.29,4.29,0,0,1,96,203.6V176a16.019,16.019,0,0,1,16-16ZM277.655,266.341l-32-32a23.995,23.995,0,0,1,32,32Zm-11.314,11.314a24,24,0,0,1-32-32ZM192,203.6a4.29,4.29,0,0,1-3.922,4.4A4,4,0,0,1,184,204v-8.687l8,8ZM120,256a24,24,0,1,1,24,24A24.028,24.028,0,0,1,120,256Zm64,25.013V223.6a20.076,20.076,0,0,0,4.371.393A19.567,19.567,0,0,0,200,219.852,19.567,19.567,0,0,0,211.629,224c.35.007.7,0,1.046-.008L216,227.313v53.7a32.037,32.037,0,0,0-16,9.855A32.037,32.037,0,0,0,184,281.013Zm136,50.3,8,8V340a3.974,3.974,0,0,1-1.2,2.854,3.888,3.888,0,0,1-2.88,1.146A4.29,4.29,0,0,1,320,339.6Zm24,24,16,16V416H344Zm32,32,16,16V416H376ZM368,280a24,24,0,1,1,24-24A24.028,24.028,0,0,1,368,280Zm-44.371-56A20.071,20.071,0,0,0,328,223.6v57.409a32.037,32.037,0,0,0-16,9.855,32.037,32.037,0,0,0-16-9.855V223.6a20.093,20.093,0,0,0,4.371.393A19.567,19.567,0,0,0,312,219.852,19.567,19.567,0,0,0,323.629,224ZM192,180.687,171.313,160H176a16.019,16.019,0,0,1,16,16Zm-38.6-38.605L121.918,110.6A24,24,0,1,1,153.4,142.082ZM117.4,432H176a8,8,0,0,0,8-8V359.6a20.076,20.076,0,0,0,4.371.393A19.567,19.567,0,0,0,200,355.852,19.567,19.567,0,0,0,211.629,360,19.892,19.892,0,0,0,216,359.6V424a8,8,0,0,0,8,8h64a8,8,0,0,0,8-8V359.6a20.093,20.093,0,0,0,4.371.393A19.567,19.567,0,0,0,312,355.852,19.567,19.567,0,0,0,323.629,360,19.887,19.887,0,0,0,328,359.6V424a8,8,0,0,0,8,8h58.6A224.092,224.092,0,0,1,117.4,432ZM408,419.313l.625.625c-.208.195-.416.388-.625.582Zm11.938-10.688L408,396.687V359.6a20.082,20.082,0,0,0,4.371.393A20.3,20.3,0,0,0,432,339.6V312a32.056,32.056,0,0,0-24-30.987V223.6a20.082,20.082,0,0,0,4.371.393A20.3,20.3,0,0,0,432,203.6V176a32.036,32.036,0,0,0-32-32h-.022a40,40,0,1,0-63.956,0H336a31.923,31.923,0,0,0-24,10.868A31.923,31.923,0,0,0,288,144h-.022a40,40,0,1,0-63.956,0H224a31.923,31.923,0,0,0-24,10.868A31.923,31.923,0,0,0,176,144h-.022a39.982,39.982,0,1,0-65.871-45.206l-6.732-6.733A223.986,223.986,0,0,1,419.938,408.625Z" style="fill:url(#linear-gradient)"/></g></svg>
