<svg id="Capa_1" enable-background="new 0 0 512 512" height="512" viewBox="0 0 512 512" width="512" xmlns="http://www.w3.org/2000/svg"><g><path d="m112 344h104c8.837 0 16 7.163 16 16 0 8.837-7.163 16-16 16h16c8.837 0 16 7.163 16 16 0 8.837-7.163 16-16 16 8.837 0 16 7.163 16 16 0 8.837-7.163 16-16 16h-24c8.837 0 16 7.163 16 16 0 8.837-7.163 16-16 16h-184v-168l62.64-44.42c9.737-6.499 22.856-4.255 29.88 5.11 6.599 8.773 5.746 21.062-2 28.84l-26.52 26.47z" fill="#fac8b2"/><g fill="#eaaa94"><path d="m216 384h-56c-4.418 0-8-3.582-8-8s3.582-8 8-8h56c4.418 0 8 3.582 8 8s-3.582 8-8 8z"/><path d="m232 416h-72c-4.418 0-8-3.582-8-8s3.582-8 8-8h72c4.418 0 8 3.582 8 8s-3.582 8-8 8z"/><path d="m208 448h-48c-4.418 0-8-3.582-8-8s3.582-8 8-8h48c4.418 0 8 3.582 8 8s-3.582 8-8 8z"/><path d="m56 440v32c0 8.837-7.163 16-16 16-8.837 0-16-7.163-16-16v-32c0-8.837 7.163-16 16-16 8.837 0 16 7.163 16 16z"/><path d="m152 440v32c0 8.837-7.163 16-16 16-8.837 0-16-7.163-16-16v-32c0-8.837 7.163-16 16-16 8.837 0 16 7.163 16 16z"/><path d="m88 424v48c0 8.837-7.163 16-16 16-8.837 0-16-7.163-16-16v-48c0-8.837 7.163-16 16-16 8.837 0 16 7.163 16 16z"/><path d="m120 424v48c0 8.837-7.163 16-16 16-8.837 0-16-7.163-16-16v-48c0-8.837 7.163-16 16-16 8.837 0 16 7.163 16 16z"/><path d="m88 320 24-24h20c11.046 0 20 8.954 20 20v40c0 11.046-8.954 20-20 20-11.046 0-20-8.954-20-20v-12z"/></g><path d="m224 288h-8v-8c0-4.418-3.582-8-8-8s-8 3.582-8 8v8h-8c-4.418 0-8 3.582-8 8s3.582 8 8 8h8v8c0 4.418 3.582 8 8 8s8-3.582 8-8v-8h8c4.418 0 8-3.582 8-8s-3.582-8-8-8z" fill="#aedef8"/><path d="m352 32h-8v-8c0-4.418-3.582-8-8-8s-8 3.582-8 8v8h-8c-4.418 0-8 3.582-8 8s3.582 8 8 8h8v8c0 4.418 3.582 8 8 8s8-3.582 8-8v-8h8c4.418 0 8-3.582 8-8s-3.582-8-8-8z" fill="#00a8e7"/><path d="m488 64h-8v-8c0-4.418-3.582-8-8-8s-8 3.582-8 8v8h-8c-4.418 0-8 3.582-8 8s3.582 8 8 8h8v8c0 4.418 3.582 8 8 8s8-3.582 8-8v-8h8c4.418 0 8-3.582 8-8s-3.582-8-8-8z" fill="#aedef8"/><path d="m464 440h-8v-8c0-4.418-3.582-8-8-8s-8 3.582-8 8v8h-8c-4.418 0-8 3.582-8 8s3.582 8 8 8h8v8c0 4.418 3.582 8 8 8s8-3.582 8-8v-8h8c4.418 0 8-3.582 8-8s-3.582-8-8-8z" fill="#00a8e7"/><path d="m144 72v24c0 4.418 3.582 8 8 8s8-3.582 8-8v-24c4.418 0 8-3.582 8-8s-3.582-8-8-8h-16c-4.418 0-8 3.582-8 8s3.582 8 8 8z" fill="#f77f7f"/><path d="m160 184v-24c0-4.418-3.582-8-8-8s-8 3.582-8 8v24c-4.418 0-8 3.582-8 8s3.582 8 8 8h16c4.418 0 8-3.582 8-8s-3.582-8-8-8z" fill="#f77f7f"/><path d="m216 112c-4.418 0-8 3.582-8 8h-24c-4.418 0-8 3.582-8 8s3.582 8 8 8h24c0 4.418 3.582 8 8 8s8-3.582 8-8v-16c0-4.418-3.582-8-8-8z" fill="#f77f7f"/><path d="m120 136c4.418 0 8-3.582 8-8s-3.582-8-8-8h-24c0-4.418-3.582-8-8-8s-8 3.582-8 8v16c0 4.418 3.582 8 8 8s8-3.582 8-8z" fill="#f77f7f"/><circle cx="152" cy="128" fill="#fd918c" r="32"/><path d="m194.34 154.34-2.34 2.35-11.72-11.69c-3.356-2.874-8.406-2.483-11.28.873-2.565 2.995-2.565 7.412 0 10.407l11.69 11.72-2.35 2.34c-3.126 3.126-3.126 8.194 0 11.32s8.194 3.126 11.32 0l16-16c3.126-3.126 3.126-8.194 0-11.32s-8.194-3.126-11.32 0z" fill="#e22526"/><path d="m169 111c3.124 3.122 8.186 3.122 11.31 0l11.69-11.69 2.34 2.35c3.126 3.126 8.194 3.126 11.32 0s3.126-8.194 0-11.32l-16-16c-3.126-3.126-8.194-3.126-11.32 0s-3.126 8.194 0 11.32l2.35 2.34-11.69 11.72c-3.102 3.12-3.102 8.16 0 11.28z" fill="#e22526"/><path d="m104 104c2.122.002 4.158-.84 5.66-2.34l2.34-2.35 11.72 11.69c3.356 2.874 8.406 2.483 11.28-.873 2.565-2.995 2.565-7.412 0-10.407l-11.69-11.72 2.35-2.34c3.126-3.126 3.126-8.194 0-11.32s-8.194-3.126-11.32 0l-16 16c-3.126 3.122-3.129 8.188-.006 11.314 1.502 1.503 3.541 2.348 5.666 2.346z" fill="#e22526"/><path d="m135 145c-3.124-3.122-8.186-3.122-11.31 0l-11.69 11.69-2.34-2.35c-3.126-3.126-8.194-3.126-11.32 0s-3.126 8.194 0 11.32l16 16c3.126 3.126 8.194 3.126 11.32 0s3.126-8.194 0-11.32l-2.35-2.34 11.69-11.72c3.102-3.12 3.102-8.16 0-11.28z" fill="#e22526"/><circle cx="208" cy="224" fill="#fd918c" r="16"/><circle cx="40" cy="136" fill="#e22526" r="16"/><circle cx="360" cy="432" fill="#e22526" r="16"/><circle cx="392" cy="88" fill="#e22526" r="16"/><circle cx="96" cy="24" fill="#fd918c" r="8"/><circle cx="40" cy="48" fill="#fd918c" r="8"/><circle cx="48" cy="216" fill="#f77f7f" r="8"/><circle cx="128" cy="224" fill="#f77f7f" r="8"/><circle cx="304" cy="488" fill="#fd918c" r="8"/><circle cx="464" cy="384" fill="#fd918c" r="8"/><circle cx="208" cy="32" fill="#fd918c" r="8"/><circle cx="488" cy="144" fill="#fd918c" r="8"/><circle cx="449.09" cy="24" fill="#fd918c" r="8"/><path d="m488 208h-192l-27 27c-3.191 3.18-4.989 7.496-5 12 0 9.389 7.611 17 17 17 4.504-.011 8.82-1.809 12-5l19-19-43 43c-3.191 3.18-4.989 7.496-5 12 0 9.389 7.611 17 17 17 4.504-.011 8.82-1.809 12-5l19-19-35 35c-3.191 3.18-4.989 7.496-5 12 0 9.389 7.611 17 17 17 4.504-.011 8.82-1.809 12-5l11-11h176z" fill="#eaaa94"/><path d="m296 232h96v144h-96z" fill="#1a9663"/><path d="m320 200h48v32h-48z" fill="#eceff0"/><path d="m488 336h-136c-13.255 0-24-10.745-24-24 0-13.255 10.745-24 24-24h40v-120h-48c-8.837 0-16-7.163-16-16 0-8.837 7.163-16 16-16h80l24 72h40z" fill="#fac8b2"/><path d="m328 168h32v32h-32z" fill="#5ec09b"/><path d="m238.33 368.85c6.34-15.27-5.72-33.18-22.33-32.85h-56v-20c0-15.464-12.536-28-28-28h-4.79c5.554-15.645-2.625-32.83-18.27-38.385-8.934-3.172-18.841-1.943-26.73 3.315-.14-.08-62.67 44.56-62.83 44.54-2.119 1.499-3.38 3.934-3.38 6.53v168s24.86 31.66 40 17.87c8.69 8.11 23.31 8.11 32 0 8.69 8.11 23.31 8.11 32 0 12.49 11.46 33.21 6 38.62-9.87h49.38c16.41.16 28.21-16.59 22.64-32 21.37 1 33.41-23.95 19.26-40 11.98-13.12 5.27-34.77-11.57-39.15zm-22.33-16.85c4.418 0 8 3.582 8 8s-3.582 8-8 8h-56c-1.029-.001-2.048.2-3 .59 1.973-3.903 3.001-8.216 3-12.59v-4zm-72-36v40c-.66 15.92-23.34 15.92-24 0v-12c-.006-2.121-.847-4.154-2.34-5.66l-18.35-18.34 16-16h16.69c6.627 0 12 5.373 12 12zm-104 164c-4.418 0-8-3.582-8-8v-32c0-4.418 3.582-8 8-8s8 3.582 8 8v32c0 4.418-3.582 8-8 8zm32 0c-4.418 0-8-3.582-8-8v-48c.4-10.59 15.6-10.61 16 0v48c0 4.418-3.582 8-8 8zm32 0c-4.418 0-8-3.582-8-8v-48c.4-10.59 15.6-10.61 16 0v48c0 4.418-3.582 8-8 8zm32 0c-4.418 0-8-3.582-8-8v-32c0-4.418 3.582-8 8-8s8 3.582 8 8v32c0 4.418-3.582 8-8 8zm77.67-18.35c-1.502 1.506-3.543 2.352-5.67 2.35h-48v-16h48c7-.12 10.67 8.78 5.67 13.65zm24-64c-1.502 1.506-3.543 2.352-5.67 2.35h-72c-10.58.38-10.62 15.6 0 16h72c7-.13 10.68 8.78 5.67 13.65-1.502 1.506-3.543 2.352-5.67 2.35h-72c-.449.004-.897.044-1.34.12-3.94-12.39-19.18-19.67-31.51-14.42-4.46-17-26.07-23.53-39.15-11.57-13.08-12-34.7-5.41-39.15 11.57-5.393-2.14-11.379-2.254-16.85-.32v-109.25l59.17-41.95c14.35-8.91 29.26 9.49 17.64 21.69l-2.46 2.46-24 24c-3.126 3.122-3.129 8.188-.006 11.314l.006.006 21.65 21.66v8.69c0 25 30.85 37.38 48 19.55-.249 4.411 3.126 8.189 7.537 8.437.154.009.308.013.463.013h72c7-.09 10.68 8.76 5.67 13.65zm-37.67-85.65v-8h-8c-4.418 0-8-3.582-8-8s3.582-8 8-8h8v-8c0-4.418 3.582-8 8-8s8 3.582 8 8v8h8c4.418 0 8 3.582 8 8s-3.582 8-8 8h-8v8c-.39 10.6-15.61 10.6-16 0zm112-272c0-4.418 3.582-8 8-8h8v-8c0-4.418 3.582-8 8-8s8 3.582 8 8v8h8c4.418 0 8 3.582 8 8s-3.582 8-8 8h-8v8c0 4.418-3.582 8-8 8s-8-3.582-8-8v-8h-8c-4.418 0-8-3.582-8-8zm152 24v-8c0-4.418 3.582-8 8-8s8 3.582 8 8v8h8c4.418 0 8 3.582 8 8s-3.582 8-8 8h-8v8c0 4.418-3.582 8-8 8s-8-3.582-8-8v-8h-8c-4.418 0-8-3.582-8-8s3.582-8 8-8zm8 384c0 4.418-3.582 8-8 8h-8v8c0 4.418-3.582 8-8 8s-8-3.582-8-8v-8h-8c-4.418 0-8-3.582-8-8s3.582-8 8-8h8v-8c0-4.418 3.582-8 8-8s8 3.582 8 8v8h8c4.418 0 8 3.582 8 8zm16-248h-34.23l-22.18-66.53c-1.089-3.267-4.146-5.47-7.59-5.47h-80c-17.33-.31-29.39 18.92-21.65 34.34-1.504 1.5-2.349 3.536-2.35 5.66v24c-4.418 0-8 3.582-8 8h-16c-2.122-.002-4.158.84-5.66 2.34l-27 27c-9.751 9.775-9.732 25.604.043 35.355 2.158 2.153 4.692 3.893 7.477 5.135l-7.52 7.51c-12.35 12.23-8.39 33.57 7.54 40.49-14.71 15.6-4.25 41.32 17.12 42.17v16c0 4.418 3.582 8 8 8h96c4.418 0 8-3.582 8-8v-32h88c4.418 0 8-3.582 8-8v-128c0-4.418-3.582-8-8-8zm-152-24h16v16h-16zm48 0v24h-8c0-4.418-3.582-8-8-8v-16zm-56 32h32v16h-32zm48 8h8v8h-8zm-101.37 24.69 24.68-24.69h12.69v8h-16c-4.418 0-8 3.582-8 8v20.69c-8.42 9.31-21.78-2.75-13.37-12zm13.37 60c-5.42 6.44-16 2.81-16-5.66.005-2.378.95-4.657 2.63-6.34l13.37-13.38zm-5.37 40.68c-3.483-3.509-3.483-9.171 0-12.68l5.37-5.38v20.63c-2.034-.207-3.933-1.115-5.37-2.57zm101.37 26.63h-80v-128h80v40h-32c-17.673 0-32 14.327-32 32s14.327 32 32 32h32zm96-40h-128c-8.837 0-16-7.163-16-16s7.163-16 16-16h40c4.418 0 8-3.582 8-8v-120c0-4.418-3.582-8-8-8h-48c-4.418 0-8-3.582-8-8s3.582-8 8-8h74.23s22.13 66.39 22.14 66.4c1.048 3.332 4.137 5.599 7.63 5.6h32zm-184-177.14c0 4.418-3.582 8-8 8h-24c-10.59-.39-10.6-15.61 0-16h24c4.418 0 8 3.582 8 8zm-208-6.86c4.418 0 8-3.582 8-8h16.8c1.03 4.998 3.013 9.751 5.84 14l-6.64 6.69-2.34-2.35c-3.126-3.126-8.194-3.126-11.32 0s-3.126 8.194 0 11.32l16 16c3.126 3.126 8.194 3.126 11.32 0s3.126-8.194 0-11.32l-2.35-2.34 6.65-6.64c4.249 2.827 9.002 4.81 14 5.84v16.8c-10.6.39-10.6 15.61 0 16h16c10.6-.39 10.6-15.61 0-16v-16.8c4.998-1.03 9.751-3.013 14-5.84l6.65 6.64-2.35 2.34c-3.126 3.126-3.126 8.194 0 11.32s8.194 3.126 11.32 0l16-16c3.126-3.126 3.126-8.194 0-11.32s-8.194-3.126-11.32 0l-2.26 2.35-6.64-6.69c2.827-4.249 4.81-9.002 5.84-14h16.8c.39 10.6 15.61 10.6 16 0v-16c-.39-10.6-15.61-10.6-16 0h-16.8c-1.03-4.998-3.013-9.751-5.84-14l6.64-6.69 2.34 2.35c3.126 3.126 8.194 3.126 11.32 0s3.126-8.194 0-11.32l-16-16c-3.126-3.126-8.194-3.126-11.32 0s-3.126 8.194 0 11.32l2.35 2.34-6.69 6.64c-4.249-2.827-9.002-4.81-14-5.84v-16.8c10.6-.39 10.6-15.61 0-16h-16c-10.6.39-10.6 15.61 0 16v16.8c-4.998 1.03-9.751 3.013-14 5.84l-6.69-6.64 2.35-2.34c3.126-3.126 3.126-8.194 0-11.32s-8.194-3.126-11.32 0l-16 16c-3.126 3.126-3.126 8.194 0 11.32s8.194 3.126 11.32 0l2.34-2.35 6.64 6.65c-2.827 4.249-4.81 9.002-5.84 14h-16.8c-.39-10.6-15.61-10.6-16 0v16c-.022 4.418 3.542 8.018 7.96 8.04zm64-40c13.255 0 24 10.745 24 24-1.32 31.84-46.69 31.83-48 0 0-13.255 10.745-24 24-24zm32 120c0 13.255 10.745 24 24 24 31.84-1.32 31.83-46.69 0-48-13.255 0-24 10.745-24 24zm32 0c0 4.418-3.582 8-8 8-10.6-.4-10.6-15.6 0-16 4.418 0 8 3.582 8 8zm-176-64c13.255 0 24-10.745 24-24-1.32-31.84-46.69-31.83-48 0 0 13.255 10.745 24 24 24zm0-32c4.418 0 8 3.582 8 8-.4 10.6-15.6 10.6-16 0 0-4.418 3.582-8 8-8zm320 280c-13.255 0-24 10.745-24 24 1.32 31.84 46.69 31.83 48 0 0-13.255-10.745-24-24-24zm0 32c-4.418 0-8-3.582-8-8 .4-10.6 15.6-10.6 16 0 0 4.418-3.582 8-8 8zm32-328c13.255 0 24-10.745 24-24-1.32-31.84-46.69-31.83-48 0 0 13.255 10.745 24 24 24zm0-32c4.418 0 8 3.582 8 8-.4 10.6-15.6 10.6-16 0 0-4.418 3.582-8 8-8zm-304-56c0-4.418 3.582-8 8-8 10.6.39 10.6 15.61 0 16-4.418 0-8-3.582-8-8zm-56 24c0-4.418 3.582-8 8-8 10.6.39 10.6 15.61 0 16-4.418 0-8-3.582-8-8zm16 160c4.418 0 8 3.582 8 8-.39 10.6-15.61 10.6-16 0 0-4.418 3.582-8 8-8zm80 8c4.418 0 8 3.582 8 8-.39 10.6-15.61 10.6-16 0 0-4.418 3.582-8 8-8zm184 272c0 4.418-3.582 8-8 8-10.6-.39-10.6-15.61 0-16 4.418 0 8 3.582 8 8zm160-104c0 4.418-3.582 8-8 8-10.6-.39-10.6-15.61 0-16 4.418 0 8 3.582 8 8zm-272-352c0-4.418 3.582-8 8-8 10.6.39 10.6 15.61 0 16-4.418 0-8-3.582-8-8zm296 112c0 4.418-3.582 8-8 8-10.6-.39-10.6-15.61 0-16 4.418 0 8 3.582 8 8zm-54.91-120c0-4.418 3.582-8 8-8 10.6.39 10.6 15.61 0 16-4.418 0-8-3.582-8-8zm-184.78 85.8c1.216-4.247 5.643-6.704 9.89-5.49l24 6.86c4.271 1.133 6.814 5.513 5.681 9.784s-5.513 6.814-9.784 5.681c-.1-.026-.199-.055-.297-.085l-24-6.86c-4.247-1.216-6.704-5.643-5.49-9.89zm0 82.11c-1.225-4.245 1.224-8.679 5.469-9.904.007-.002.014-.004.021-.006l24-6.85c10.3-2.54 14.49 12.09 4.4 15.38l-24 6.86c-4.244 1.215-8.67-1.238-9.89-5.48z"/></g></svg>